<?xml version="1.0" encoding="UTF-8"?>
<svg version="1.1" xmlns="http://www.w3.org/2000/svg" width="1024" height="1024">
<path d="M0 0 C1.99451134 0.92563203 3.9931788 1.84173536 5.99307251 2.75567627 C8.06508394 3.7026565 10.13686406 4.65010039 12.2073822 5.6003418 C18.5673828 8.51886234 24.95671397 11.36919454 31.35513306 14.20245361 C32.42996948 14.67956787 33.50480591 15.15668213 34.61221313 15.64825439 C39.53732792 17.83408569 44.46385025 20.0166998 49.39224243 22.19512939 C66.09478415 29.57825527 82.7592937 37.01638031 99.30215454 44.75177002 C108.58814555 49.08429268 117.94605563 53.23309395 127.33560181 57.33526611 C135.3997122 60.85934113 143.43963456 64.43743296 151.48013306 68.01495361 C153.02390995 68.70165254 154.56769253 69.38833866 156.11148071 70.07501221 C158.45585789 71.11782625 160.80021326 72.16068915 163.14450073 73.20370483 C168.47540818 75.57538451 173.80749574 77.9443933 179.14028931 80.31182861 C195.28846328 87.48152352 211.42603402 94.67429928 227.55151367 101.89489746 C243.02040042 108.820945 258.5054684 115.7102028 273.99630737 122.58699036 C278.40722942 124.54522473 282.8171507 126.50569022 287.22622681 128.46807861 C289.4150137 129.44207108 291.60381544 130.41603018 293.79263306 131.38995361 C294.85369263 131.86215332 295.9147522 132.33435303 297.00796509 132.82086182 C303.1578633 135.55471329 309.31407617 138.27371159 315.47622681 140.97979736 C328.90551459 146.87857105 342.32783163 152.79087186 355.66763306 158.88995361 C356.69251831 159.35401611 357.71740356 159.81807861 358.77334595 160.29620361 C367.2647819 164.20780559 375.91234375 168.20337413 382.16763306 175.32745361 C382.64716431 175.8160083 383.12669556 176.30456299 383.62075806 176.80792236 C391.78658342 185.489267 394.32767771 195.58093286 394.29906082 207.23182869 C394.30213977 208.40433095 394.30213977 208.40433095 394.30528092 209.60052013 C394.31094183 212.22355396 394.30949479 214.84653512 394.30807495 217.46957397 C394.31065911 219.36773358 394.31367241 221.26589263 394.31707835 223.16405094 C394.32514567 228.38345572 394.32693778 233.60284676 394.32767582 238.82225704 C394.32952684 244.45024929 394.33707442 250.07823441 394.34381104 255.70622253 C394.35739295 268.01413071 394.36341885 280.32203563 394.36782169 292.62995005 C394.37058434 300.31508739 394.37482173 308.00022347 394.37932587 315.68535995 C394.39151832 336.96334076 394.40185307 358.24132023 394.40520096 379.51930428 C394.40542259 380.89489954 394.40564437 382.27049481 394.40586631 383.64609008 C394.40608695 385.02497585 394.40630743 386.40386162 394.40652776 387.78274739 C394.40697031 390.54895155 394.40741742 393.31515571 394.40786743 396.08135986 C394.40797682 396.76721592 394.40808621 397.45307197 394.40819892 398.15971155 C394.41182898 420.39508508 394.42774765 442.630426 394.4510578 464.86578704 C394.47566688 488.38326851 394.48936758 511.90072473 394.49056888 535.41822135 C394.49148555 548.23442042 394.49723598 561.05057677 394.51538849 573.86676407 C394.53079141 584.78012175 394.53590877 595.69342353 394.52765039 606.60679002 C394.5237446 612.173793 394.52467012 617.74068339 394.53870773 623.3076725 C394.55145061 628.40789237 394.5502456 633.50791511 394.53811702 638.60813473 C394.53616071 640.44934298 394.53923537 642.29056521 394.54796138 644.13175382 C394.60035089 655.93708142 394.34878766 667.41585977 388.54263306 678.07745361 C388.11724243 678.89729736 387.69185181 679.71714111 387.25357056 680.56182861 C381.24773019 688.5246282 373.33352459 693.30245684 364.60513306 697.82745361 C363.63511353 698.34436768 362.66509399 698.86128174 361.66567993 699.39385986 C354.02914339 703.43819346 346.29585031 707.29017457 338.55908203 711.13787842 C330.86813549 714.96357545 323.18253674 718.80002956 315.49649048 722.63555908 C313.4079833 723.67729679 311.31911785 724.71831651 309.22988892 725.75860596 C299.03065399 730.83781374 288.84362684 735.92713017 278.78091431 741.27276611 C265.90849727 748.10865686 252.82503924 754.52793117 239.77407837 761.01397705 C225.81531575 767.95504335 211.92086278 774.98688381 198.16763306 782.32745361 C196.63174333 783.14539418 195.09577332 783.96318401 193.5597229 784.78082275 C192.87800018 785.1439003 192.19627747 785.50697784 191.49389648 785.88105774 C184.72566517 789.4820046 177.91613313 792.97673986 171.04580688 796.37872314 C165.94737873 798.91253317 160.92538014 801.57160314 155.91398621 804.27262878 C151.65656535 806.55727888 147.36067746 808.75331776 143.03091431 810.89776611 C133.86497496 815.4606337 124.74695292 820.11595477 115.63272095 824.78106689 C112.86965861 826.19502039 110.10559452 827.60700146 107.34146118 829.01885986 C97.81343011 833.89061012 88.31217809 838.80833779 78.84907532 843.80508423 C71.81014818 847.52158264 64.74299365 851.18081494 57.66763306 854.82745361 C49.7757627 858.90000319 41.89136855 862.98468723 34.04263306 867.13995361 C30.75379244 868.87453104 27.46139986 870.60224937 24.16763306 872.32745361 C23.53865112 872.65697021 22.90966919 872.98648682 22.2616272 873.32598877 C17.7265786 875.70015472 13.18640206 878.06421802 8.64181519 880.42007446 C7.09933276 881.22105201 5.55807036 882.02438428 4.01815796 882.83029175 C-15.61224127 893.09790128 -34.23624524 900.99300398 -56.76986694 894.95245361 C-82.76299729 886.14280584 -107.49080095 870.89278459 -131.71615601 858.07330322 C-138.89713957 854.27748069 -146.11506747 850.55356226 -153.33236694 846.82745361 C-161.26485032 842.73211366 -169.19211185 838.62879743 -177.08236694 834.45245361 C-186.52730153 829.45522459 -196.03458876 824.57977133 -205.537323 819.69372559 C-214.19238938 815.24283083 -222.83357285 810.77012335 -231.43392944 806.21417236 C-240.10022783 801.63603947 -248.82594328 797.17266459 -257.54244995 792.69116211 C-265.40788087 788.64657653 -273.26890626 784.59685576 -281.08236694 780.45245361 C-291.27659882 775.04758728 -301.55826944 769.81191403 -311.82632446 764.54922485 C-329.31588522 755.58381582 -329.31588522 755.58381582 -337.45736694 751.26495361 C-350.62357653 744.28512688 -363.9075063 737.52931528 -377.16439819 730.72393799 C-388.32889172 724.99261391 -399.4903761 719.25545431 -410.6472168 713.50924683 C-414.66003366 711.44316967 -418.67587345 709.38314168 -422.69444275 707.32827759 C-465.12561832 685.62282779 -465.12561832 685.62282779 -470.90923643 669.28556973 C-473.96336903 658.81070025 -474.39844553 649.05492902 -474.34030151 638.19242859 C-474.34491925 636.29617224 -474.35127798 634.39991947 -474.35921049 632.50367409 C-474.37580694 627.33117159 -474.36770177 622.1589668 -474.35526562 616.98646367 C-474.34617764 611.39334038 -474.36020334 605.80026662 -474.3711853 600.20715332 C-474.38893485 589.26562465 -474.38514652 578.32420599 -474.37353474 567.38267308 C-474.36448712 558.48773728 -474.36328217 549.59283223 -474.36763 540.69789314 C-474.36824294 539.4300768 -474.36885587 538.16226046 -474.36948738 536.85602545 C-474.37076632 534.28018569 -474.37206318 531.70434593 -474.37337774 529.12850619 C-474.3844484 505.68502959 -474.3729843 482.24162669 -474.35200735 458.79816328 C-474.33302438 437.42060626 -474.3347272 416.04314457 -474.35385132 394.66558838 C-474.37529302 370.61729621 -474.38367672 346.56906905 -474.37140226 322.52076393 C-474.37012811 319.95490874 -474.36887063 317.38905353 -474.36763 314.82319832 C-474.3670129 313.56086649 -474.3663958 312.29853466 -474.36576 310.99795036 C-474.36231114 302.11666188 -474.36812539 293.2354073 -474.37754822 284.35412407 C-474.38878381 273.52665324 -474.38569517 262.69929837 -474.36442524 251.87184077 C-474.35393627 246.35108582 -474.34975638 240.83052397 -474.36302185 235.30977058 C-474.37499592 230.24982867 -474.36830077 225.19025773 -474.34711164 220.13034917 C-474.34266681 218.30620351 -474.3448638 216.48202611 -474.35461479 214.6579011 C-474.43190321 198.98991584 -472.89223039 185.44706008 -461.83236694 173.32745361 C-448.01890523 159.5387472 -426.46609677 152.99706136 -408.88705444 145.14093018 C-405.53577472 143.64316841 -402.187518 142.13878852 -398.84022522 140.63214111 C-395.73499138 139.23544229 -392.62732463 137.84419774 -389.51986694 136.45245361 C-388.36962036 135.93457275 -387.21937378 135.41669189 -386.03427124 134.88311768 C-384.45512939 134.17880615 -384.45512939 134.17880615 -382.84408569 133.46026611 C-381.45902832 132.83982422 -381.45902832 132.83982422 -380.04598999 132.20684814 C-377.83236694 131.32745361 -377.83236694 131.32745361 -375.83236694 131.32745361 C-375.50236694 130.66745361 -375.17236694 130.00745361 -374.83236694 129.32745361 C-372.8436967 128.67346139 -370.85306646 128.02520104 -368.85678101 127.39483643 C-362.79973992 125.25717226 -356.99277666 122.46327753 -351.14746094 119.80969238 C-346.9025222 117.8834712 -342.65054222 115.97291495 -338.39877319 114.06182861 C-337.52055405 113.66682159 -336.6423349 113.27181458 -335.73750305 112.86483765 C-326.73728961 108.8232602 -317.69491092 104.8808691 -308.64486694 100.95245361 C-294.79179773 94.93424947 -280.95871966 88.87266907 -267.14486694 82.76495361 C-266.24439636 82.366875 -265.34392578 81.96879639 -264.41616821 81.55865479 C-254.99511595 77.39276968 -245.57823373 73.21762367 -236.16830444 69.02667236 C-235.40016418 68.68459747 -234.63202393 68.34252258 -233.84060669 67.99008179 C-233.08185242 67.65217621 -232.32309814 67.31427063 -231.54135132 66.96612549 C-230.79184204 66.63233887 -230.04233276 66.29855225 -229.27011108 65.95465088 C-227.77348077 65.28809262 -226.2768985 64.62142646 -224.78036499 63.95465088 C-214.76266731 59.49291313 -204.71785007 55.10028409 -194.64486694 50.76495361 C-183.35524287 45.90572666 -172.16069693 40.86144329 -160.98687744 35.74246216 C-150.54561866 30.96299222 -140.03939992 26.39233993 -129.44369507 21.9631958 C-122.94123633 19.23985641 -116.55750574 16.36804385 -110.19174194 13.33917236 C-103.79849248 10.34893632 -97.30665874 7.57397174 -90.83236694 4.76495361 C-90.20310303 4.49104797 -89.57383911 4.21714233 -88.92550659 3.93493652 C-56.01270532 -10.38109083 -33.90463102 -15.73543795 0 0 Z M-46.20736694 43.03057861 C-47.52644043 43.62008301 -47.52644043 43.62008301 -48.87216187 44.22149658 C-49.84902954 44.6689624 -50.82589722 45.11642822 -51.83236694 45.57745361 C-54.07840511 46.58538998 -56.32450405 47.59319094 -58.57064819 48.60089111 C-59.86712245 49.18630928 -61.16350459 49.77193147 -62.45980835 50.35772705 C-70.31868138 53.90393415 -78.20245105 57.39467577 -86.08151245 60.89572144 C-89.01858907 62.20188532 -91.95439496 63.51087052 -94.88998413 64.82037354 C-103.6904023 68.74198583 -112.49776207 72.63910443 -121.36752319 76.40167236 C-122.08252487 76.70607239 -122.79752655 77.01047241 -123.53419495 77.32409668 C-126.80533966 78.7159267 -130.08022654 80.09689916 -133.36434937 81.45782471 C-135.04234619 82.16866211 -135.04234619 82.16866211 -136.75424194 82.89385986 C-137.71942749 83.2954834 -138.68461304 83.69710693 -139.67904663 84.11090088 C-142.16089342 85.19565361 -142.16089342 85.19565361 -142.83236694 88.32745361 C-126.63738152 95.93120758 -110.41058348 103.45622669 -94.11340332 110.83847046 C-83.52179574 115.63714484 -72.9642736 120.5027055 -62.42514038 125.41583252 C-52.76708962 129.91078299 -43.07014506 134.31673124 -33.36645508 138.71203613 C-23.21977534 143.31004473 -13.10731936 147.97598588 -3.01986694 152.70245361 C5.62847822 156.75411198 14.29078369 160.76546554 23.01187134 164.6585083 C31.65557355 168.5260221 40.25328947 172.4929941 48.85513306 176.45245361 C61.40559108 182.22897375 73.96982224 187.97332148 86.55380249 193.67642212 C94.59410692 197.3216366 102.62228216 200.99148949 110.63247681 204.70245361 C111.43794449 205.07559189 112.24341217 205.44873016 113.07328796 205.83317566 C114.71647082 206.59450232 116.35964398 207.3558499 118.00280762 208.11721802 C133.09314056 215.10851274 148.2326554 221.97172198 163.45425415 228.67266846 C170.34843712 231.71190035 177.21496547 234.79033367 184.01919556 238.02667236 C184.62976303 238.31556335 185.24033051 238.60445435 185.86940002 238.90209961 C188.69395033 240.23923119 191.51090537 241.58875336 194.31729126 242.96368408 C195.77268311 243.65615234 195.77268311 243.65615234 197.25747681 244.36260986 C198.09141968 244.76874512 198.92536255 245.17488037 199.78457642 245.59332275 C205.53907455 247.36606898 210.75715404 243.76079103 215.81607056 241.24151611 C216.65650909 240.82890533 217.49694763 240.41629456 218.362854 239.99118042 C221.09202148 238.6500999 223.81725015 237.30120601 226.54263306 235.95245361 C229.3682985 234.56221156 232.19498467 233.17405966 235.021698 231.78594971 C236.87925092 230.87354445 238.73647153 229.96046233 240.59335327 229.04669189 C247.09781594 225.84655005 253.61927829 222.68695895 260.16763306 219.57745361 C266.71870848 216.4638965 273.25409232 213.31982361 279.77700806 210.14776611 C280.90737488 209.59832336 280.90737488 209.59832336 282.06057739 209.03778076 C285.82272541 207.20873326 289.58379211 205.37750748 293.34341431 203.54327393 C294.71707992 202.87491325 296.09077638 202.20661598 297.46450806 201.53839111 C298.09773987 201.22854279 298.73097168 200.91869446 299.38339233 200.59945679 C301.95836041 199.34871637 304.4473971 198.23419893 307.16763306 197.32745361 C307.16763306 196.66745361 307.16763306 196.00745361 307.16763306 195.32745361 C279.74542943 182.90184342 279.74542943 182.90184342 252.16763306 170.82745361 C239.82376525 165.52167463 227.5698135 160.03031855 215.32644653 154.49716187 C200.41951072 147.76264283 185.46121642 141.15121576 170.47109985 134.60406494 C159.74871135 129.91834488 149.06612791 125.14999452 138.40133667 120.33468628 C135.2806752 118.9275022 132.1561088 117.52923103 129.03091431 116.13214111 C114.66660963 109.7086403 100.32597863 103.23585916 86.01065063 96.70391846 C76.09113834 92.18105821 66.13581314 87.7418936 56.16763306 83.32745361 C54.6486514 82.6544032 53.12968977 81.98130759 51.61074829 81.3081665 C50.85990463 80.97543228 50.10906097 80.64269806 49.33546448 80.29988098 C46.30771089 78.9579047 43.28022997 77.61531411 40.25283813 76.27252197 C38.73254915 75.59852556 37.2120397 74.92502622 35.6913147 74.25201416 C25.4612796 69.72389424 15.29305869 65.08447334 5.16763306 60.32745361 C-3.4856775 56.29832885 -12.15552828 52.30561305 -20.83236694 48.32745361 C-21.70860718 47.92333252 -22.58484741 47.51921143 -23.48764038 47.10284424 C-25.70231771 46.08429097 -27.92211632 45.07823703 -30.14486694 44.07745361 C-31.33724976 43.53604736 -32.52963257 42.99464111 -33.75814819 42.43682861 C-38.44133168 40.7468361 -41.70947293 40.98877146 -46.20736694 43.03057861 Z M-238.97299194 129.60870361 C-240.08690308 130.11256592 -241.20081421 130.61642822 -242.34848022 131.13555908 C-242.95371521 131.40994812 -243.5589502 131.68433716 -244.18252563 131.96704102 C-262.63073057 140.32198511 -281.22502504 148.33489695 -299.83236694 156.32745361 C-300.57953979 156.64841003 -301.32671265 156.96936646 -302.0965271 157.30004883 C-310.81119392 161.0427704 -319.52913813 164.77781052 -328.2487793 168.50892639 C-333.54623043 170.7760013 -338.84196785 173.04704954 -344.13705444 175.31964111 C-359.01517718 181.70421938 -373.8939332 188.08482376 -388.83236694 194.32745361 C-388.83236694 194.98745361 -388.83236694 195.64745361 -388.83236694 196.32745361 C-387.71346069 196.8263208 -386.59455444 197.32518799 -385.44174194 197.83917236 C-365.12291772 206.92621409 -344.97652998 216.38715998 -324.81155396 225.80905151 C-314.29201181 230.72372721 -303.75758655 235.60585954 -293.22006226 240.48184204 C-279.50880985 246.826818 -265.81045693 253.19716241 -252.14486694 259.63995361 C-251.45459412 259.96535126 -250.76432129 260.2907489 -250.0531311 260.62600708 C-248.67474919 261.27580296 -247.29637188 261.92560858 -245.91799927 262.57542419 C-245.24392029 262.89320328 -244.56984131 263.21098236 -243.87533569 263.53839111 C-243.20786316 263.85306839 -242.54039062 264.16774567 -241.85269165 264.49195862 C-234.56015243 267.92890719 -227.26123996 271.35215935 -219.95736694 274.76495361 C-219.33391388 275.05634216 -218.71046082 275.34773071 -218.06811523 275.64794922 C-209.54343239 279.62929634 -200.98424218 283.52361109 -192.39047241 287.35308838 C-187.89675133 289.36577308 -183.47290716 291.47042061 -179.08236694 293.70245361 C-173.06860629 296.75828315 -166.97034835 299.59256384 -160.83236694 302.38995361 C-151.68817969 306.55762891 -142.5623966 310.76246552 -133.45736694 315.01495361 C-132.83654236 315.30483154 -132.21571777 315.59470947 -131.57608032 315.89337158 C-120.55730579 321.04002196 -109.5547183 326.22093434 -98.5534668 331.40490723 C-87.44129372 336.64039408 -76.3174828 341.84986387 -65.16366577 346.99615479 C-60.40054002 349.19481728 -55.6463597 351.40034107 -50.94174194 353.72198486 C-50.24073364 354.06415039 -49.53972534 354.40631592 -48.81747437 354.7588501 C-47.07885877 355.61215159 -45.34771648 356.48063895 -43.61752319 357.35089111 C-39.59451199 358.7614841 -37.01704944 357.82777754 -33.1512146 356.19512939 C-32.1926355 355.72574951 -31.2340564 355.25636963 -30.24642944 354.77276611 C-29.16119995 354.24537842 -28.07597046 353.71799072 -26.95785522 353.17462158 C-25.80269409 352.60630615 -24.64753296 352.03799072 -23.45736694 351.45245361 C-22.25567531 350.8660759 -21.05368593 350.28030799 -19.85140991 349.69512939 C-18.00717679 348.79739916 -16.16316187 347.89924987 -14.32019043 346.99893188 C-7.26830564 343.55547481 -0.17659298 340.1956816 6.9190979 336.84356689 C10.34183819 335.21550319 13.6864333 333.62053562 16.92544556 331.64776611 C19.58330821 330.08268323 22.23668505 329.28523269 25.16763306 328.32745361 C27.82686857 327.19064835 30.43350905 325.94934214 33.04263306 324.70245361 C33.79528442 324.34546387 34.54793579 323.98847412 35.32339478 323.6206665 C40.63932308 321.08754696 45.91038365 318.47127004 51.1678772 315.81890869 C58.56813651 312.09983564 66.02456983 308.49640476 73.48013306 304.88995361 C74.15485657 304.56345825 74.82958008 304.23696289 75.52474976 303.90057373 C84.56600158 299.52760271 93.61911999 295.18135477 102.72354126 290.940979 C105.69407626 289.5491169 108.43185325 288.15130682 111.16763306 286.32745361 C110.2573938 285.90335205 109.34715454 285.47925049 108.40933228 285.04229736 C101.88862564 282.00257769 95.37130374 278.95603497 88.86294556 275.88995361 C74.53588519 269.14345345 60.17341806 262.48759305 45.74365234 255.96356201 C34.98532356 251.09633775 24.28167555 246.12143056 13.60513306 241.07745361 C1.09393373 235.16694191 -11.44938742 229.33586935 -24.0418396 223.59991455 C-28.74652327 221.45461173 -33.44528551 219.29640461 -38.14486694 217.13995361 C-44.34708507 214.29405445 -50.55163138 211.4534444 -56.76341248 208.628479 C-72.54773747 201.44997347 -88.29164264 194.19915366 -103.95736694 186.76495361 C-124.50297671 177.01590187 -145.21300911 167.64464536 -165.95736694 158.32745361 C-176.10333852 153.7687157 -186.18783295 149.09625 -196.19955444 144.24932861 C-217.05934035 131.55951361 -217.05934035 131.55951361 -238.97299194 129.60870361 Z M-421.83236694 240.32745361 C-423.69453695 242.18962362 -422.9731829 245.30424566 -422.98334789 247.79001141 C-422.9874977 248.47653576 -422.99164751 249.16306012 -422.99592307 249.87038824 C-423.00872187 252.19980447 -423.01429202 254.52918346 -423.01991272 256.85862732 C-423.02750077 258.53400984 -423.03550163 260.20939052 -423.04388267 261.88476926 C-423.06564063 266.51135634 -423.08090839 271.13794587 -423.09502304 275.76456177 C-423.10789857 279.72730898 -423.12445899 283.69003744 -423.14100029 287.65277078 C-423.29711187 325.20073041 -423.37201339 362.74912286 -423.43262005 400.29734325 C-423.44064928 405.18571687 -423.44881752 410.07409023 -423.4571228 414.96246338 C-423.45918041 416.17750423 -423.46123801 417.39254507 -423.46335796 418.64440534 C-423.49778952 438.33426056 -423.57044907 458.02379063 -423.65803041 477.7134734 C-423.74713112 497.91136779 -423.79853531 518.10909335 -423.81392223 538.30718023 C-423.8235921 549.65468006 -423.85046109 561.00159425 -423.92023277 572.34889793 C-423.97962145 582.01178152 -424.00546884 591.67400178 -423.98689391 601.33706357 C-423.97848385 606.2698918 -423.98646646 611.20128806 -424.03787994 616.13388634 C-424.0845667 620.64812774 -424.08530429 625.15993648 -424.04914317 629.6742529 C-424.04421239 631.30894941 -424.05628616 632.94380188 -424.08687755 634.57821956 C-424.52641943 643.26291735 -424.52641943 643.26291735 -420.65546191 650.58300078 C-418.08946346 652.15402974 -415.64618956 653.27840847 -412.83236694 654.32745361 C-411.59031492 654.96239451 -410.35496693 655.61075838 -409.12924194 656.27667236 C-407.95877319 656.85030518 -406.78830444 657.42393799 -405.58236694 658.01495361 C-404.19817596 658.69839266 -402.81406606 659.38199592 -401.43002319 660.06573486 C-400.69412964 660.42747803 -399.95823608 660.78922119 -399.20004272 661.16192627 C-383.87704967 668.70492161 -368.69069076 676.475731 -353.61849976 684.50714111 C-344.29607363 689.47465651 -334.93000358 694.32792809 -325.46615601 699.02081299 C-319.64720662 701.90763326 -313.83233206 704.80260347 -308.01986694 707.70245361 C-307.36241486 708.03041931 -306.70496277 708.35838501 -306.02758789 708.69628906 C-297.50197871 712.95274289 -289.0218046 717.28177018 -280.61044312 721.76055908 C-274.73229565 724.88132101 -268.79291943 727.8675144 -262.83236694 730.82745361 C-253.60167334 735.41435761 -244.46868871 740.16332808 -235.36166382 744.99005127 C-222.43568888 751.82484767 -209.47033223 758.57565906 -196.36947632 765.06915283 C-190.58246205 767.93927134 -184.80008382 770.81867469 -179.01986694 773.70245361 C-178.36253571 774.03035889 -177.70520447 774.35826416 -177.0279541 774.69610596 C-168.45540173 778.97598816 -159.92828716 783.32891719 -151.46981812 787.83087158 C-145.96723852 790.75284296 -140.41320433 793.55818054 -134.83236694 796.32745361 C-128.60395851 799.42052945 -122.41346445 802.56916141 -116.26986694 805.82745361 C-107.43831224 810.50430798 -98.57239628 815.11406566 -89.6932373 819.69976807 C-88.07989974 820.53373248 -86.46732706 821.36917828 -84.85552979 822.20611572 C-82.57768191 823.38851631 -80.29718796 824.56565166 -78.01596069 825.74151611 C-77.32099487 826.10351105 -76.62602905 826.46550598 -75.91000366 826.83847046 C-72.54564409 828.70043014 -72.54564409 828.70043014 -68.83236694 829.32745361 C-68.83236694 689.73745361 -68.83236694 550.14745361 -68.83236694 406.32745361 C-78.39510553 401.54608432 -87.94890972 396.77286597 -97.58236694 392.13995361 C-98.72213989 391.59097412 -99.86191284 391.04199463 -101.03622437 390.47637939 C-109.37130205 386.47540544 -117.74858331 382.57335506 -126.14486694 378.70245361 C-134.44483836 374.87559917 -142.680191 370.95995542 -150.83236694 366.82745361 C-160.06346582 362.14821214 -169.41630466 357.77215519 -178.81674194 353.44464111 C-187.70662501 349.34161816 -196.52933669 345.11328728 -205.33236694 340.82745361 C-216.19670305 335.54145916 -227.10691459 330.37144278 -238.07601929 325.30523682 C-250.83946222 319.40967366 -263.5548428 313.41325105 -276.271698 307.41802979 C-281.37945772 305.0105143 -286.49004269 302.60907111 -291.60189819 300.21026611 C-304.66556062 294.07788745 -317.71614529 287.92473613 -330.70736694 281.63995361 C-343.13351136 275.63045279 -355.64400266 269.81270495 -368.17318726 264.02178955 C-373.98018539 261.33515665 -379.77794868 258.62869488 -385.57571411 255.92221069 C-387.49506959 255.02652553 -389.4148951 254.13185459 -391.33480835 253.23736572 C-396.69908057 250.73657571 -402.05883231 248.22792403 -407.39486694 245.66729736 C-408.19319946 245.28549316 -408.99153198 244.90368896 -409.8140564 244.51031494 C-411.22912119 243.831679 -412.641941 243.14833018 -414.05184937 242.45904541 C-416.86091945 241.11299348 -418.67039844 240.32745361 -421.83236694 240.32745361 Z M335.44033813 242.53961182 C334.45362625 243.02464676 333.46691437 243.5096817 332.45030212 244.00941467 C331.37346664 244.54362534 330.29663116 245.077836 329.18716431 245.62823486 C327.50864632 246.454748 327.50864632 246.454748 325.79621887 247.29795837 C322.7968158 248.77550522 319.79906212 250.25629605 316.80215454 251.7388916 C311.51634107 254.35293637 306.22671002 256.95925321 300.93716431 259.56573486 C299.77830215 260.13700104 298.61944 260.70826721 297.42546082 261.29684448 C287.20673796 266.32589699 276.93871892 271.24765851 266.65484619 276.14175415 C260.62771382 279.0149971 254.61725845 281.92298085 248.60513306 284.82745361 C247.36360945 285.42643859 246.12207294 286.02539681 244.88052368 286.62432861 C243.69523071 287.19667236 242.50993774 287.76901611 241.28872681 288.35870361 C240.25159546 288.85950439 239.21446411 289.36030518 238.14590454 289.87628174 C237.16307495 290.35516846 236.18024536 290.83405518 235.16763306 291.32745361 C234.0720105 291.84243408 232.97638794 292.35741455 231.8475647 292.88800049 C229.0660585 294.05031761 229.0660585 294.05031761 228.16763306 296.32745361 C228.07716195 297.89855322 228.05008339 299.47349826 228.05410767 301.04719543 C228.05417816 302.04348969 228.05424866 303.03978394 228.05432129 304.06626892 C228.05948761 305.16380997 228.06465393 306.26135101 228.06997681 307.39215088 C228.07143707 308.54531799 228.07289734 309.69848511 228.07440186 310.88659668 C228.07821702 313.40040575 228.08434312 315.9142121 228.09246826 318.42801094 C228.10521406 322.41922656 228.11189025 326.41042637 228.11660767 330.4016571 C228.12866121 339.61483339 228.15055168 348.82798141 228.1728363 358.0411377 C228.19310918 366.44618961 228.21118654 374.85123087 228.22105122 383.2563023 C228.22676362 387.83901222 228.24031318 392.42166119 228.25527954 397.00434875 C228.30064591 417.42507996 228.30064591 417.42507996 227.85122681 427.26861572 C227.79378296 428.53523544 227.73633911 429.80185516 227.67715454 431.1068573 C227.12853762 434.57456905 226.26955534 436.53666195 224.16763306 439.32745361 C220.71887583 441.6266251 219.30558255 442.1796697 215.16763306 442.32745361 C205.38766758 439.5705368 196.24908871 434.7099817 187.13638306 430.30987549 C186.02263306 429.78329346 184.90888306 429.25671143 183.76138306 428.71417236 C182.25608032 427.99040405 182.25608032 427.99040405 180.72036743 427.25201416 C178.10136811 426.00488139 178.10136811 426.00488139 175.16763306 427.32745361 C173.55096303 429.3801796 172.06870381 431.42007152 170.60513306 433.57745361 C169.71257222 434.86007705 168.81798934 436.14129539 167.92153931 437.42120361 C167.46537231 438.07346924 167.00920532 438.72573486 166.53921509 439.39776611 C164.44389207 442.34568942 162.25522142 445.21696362 160.04263306 448.07745361 C159.42787109 448.87421509 159.42787109 448.87421509 158.8006897 449.68707275 C155.46526705 453.98761073 152.03722693 458.21021674 148.56607056 462.40167236 C146.97177106 464.20051239 146.97177106 464.20051239 147.16763306 466.32745361 C145.84424674 467.01365393 144.50813358 467.67531822 143.16763306 468.32745361 C142.44575806 468.73995361 141.72388306 469.15245361 140.98013306 469.57745361 C136.0041347 470.90438651 131.23515304 469.38772027 126.73013306 467.07745361 C122.07151303 461.85979918 122.86209282 454.54697565 122.8487854 447.99786377 C122.83371696 446.29942825 122.83371696 446.29942825 122.81834412 444.56668091 C122.78751439 440.83329769 122.77047726 437.09998618 122.75357056 433.36651611 C122.73485878 430.77433658 122.71528536 428.18216313 122.69488525 425.58999634 C122.64880208 419.47034305 122.61139347 413.35069336 122.57821238 407.23095834 C122.53993613 400.26112463 122.49054047 393.29138345 122.44022822 386.32162786 C122.3370236 371.99030629 122.24772605 357.65892205 122.16763306 343.32745361 C118.01824566 342.05507471 116.33298942 342.89663988 112.46060181 344.90557861 C111.32904663 345.48364258 110.19749146 346.06170654 109.03164673 346.6572876 C108.43306854 346.96995575 107.83449036 347.2826239 107.21777344 347.60476685 C104.68873467 348.92545256 102.14646264 350.21964428 99.604599 351.51542664 C98.30956484 352.17586437 97.01520498 352.83762593 95.72151184 353.50068665 C90.14607228 356.35521337 84.51655501 359.08497844 78.85513306 361.76495361 C69.77256008 366.07838939 60.71538023 370.44160951 51.66763306 374.82745361 C42.59447268 379.22391706 33.51606716 383.60844624 24.41763306 387.95245361 C12.27580903 393.75170731 12.27580903 393.75170731 0.1411438 399.56591797 C-1.67711553 400.4379452 -3.49643199 401.30776712 -5.31576538 402.17755127 C-6.95980347 402.96718262 -6.95980347 402.96718262 -8.63705444 403.77276611 C-9.61658081 404.242146 -10.59610718 404.71152588 -11.60531616 405.19512939 C-13.74803411 406.13984214 -13.74803411 406.13984214 -14.83236694 407.32745361 C-14.93049797 409.56353665 -14.95607795 411.80279668 -14.95541477 414.04103184 C-14.95656862 414.75467938 -14.95772246 415.46832692 -14.95891127 416.20360014 C-14.96158477 418.62524282 -14.9570498 421.04682069 -14.95262146 423.46846008 C-14.95305701 425.20998905 -14.95393162 426.95151796 -14.95521063 428.69304651 C-14.95745873 433.50225959 -14.95343002 438.31145063 -14.94843256 443.1206609 C-14.94413274 448.29792414 -14.94557415 453.47518604 -14.94633484 458.65245056 C-14.94686037 467.63025777 -14.94371051 476.60805773 -14.938097 485.58586311 C-14.92998596 498.56642346 -14.92736719 511.54698028 -14.92610901 524.52754288 C-14.92391786 545.58527878 -14.91725609 566.64301082 -14.9078064 587.70074463 C-14.89863389 608.16200745 -14.89155227 628.62326923 -14.88729858 649.08453369 C-14.88703586 650.3447831 -14.88677314 651.60503251 -14.88650245 652.9034713 C-14.88519746 659.22547873 -14.88393374 665.54748616 -14.88269055 671.8694936 C-14.87231599 724.35548294 -14.85469598 776.84146809 -14.83236694 829.32745361 C-13.76310124 828.79272871 -12.69383554 828.25800381 -11.59216785 827.70707512 C-10.15952451 826.99067896 -8.72688026 826.27428464 -7.29423523 825.55789185 C-6.59302945 825.20722247 -5.89182366 824.8565531 -5.16936922 824.49525738 C0.63548456 821.59261785 6.44280903 818.69495364 12.25083923 815.79867554 C17.01163521 813.42450016 21.77135606 811.04817173 26.53099537 808.67167854 C30.10994527 806.88480758 33.68926863 805.09869315 37.2694397 803.31427002 C57.56068252 793.24127426 57.56068252 793.24127426 77.64512634 782.76498413 C84.32707896 779.18922939 91.11826972 775.83186802 97.90224266 772.45537949 C100.98542613 770.92027878 104.06687771 769.38171789 107.14836884 767.84322357 C109.63378582 766.60235377 112.11942028 765.36192043 114.60508728 764.12155151 C121.11621714 760.87214036 127.62632655 757.6206864 134.13632679 754.36901283 C139.04702892 751.91626895 143.95810474 749.46427942 148.87002563 747.01397705 C153.68103104 744.61397384 158.49100825 742.21192092 163.30032921 739.80854416 C165.10684554 738.90619487 166.91370762 738.00453737 168.7209568 737.10365677 C177.74530753 732.60465121 186.73616994 728.05737981 195.6468811 723.33673096 C204.66109323 718.56186815 213.7608419 713.97170405 222.89300537 709.42718506 C225.69836914 708.03105326 228.50235746 706.6321901 231.30606079 705.23272705 C238.26159542 701.76154302 245.21933821 698.29479446 252.17703247 694.82794189 C258.08990015 691.8814818 264.00188421 688.9332616 269.91278076 685.98284912 C272.63613314 684.62434411 275.36070428 683.26830783 278.08535767 681.91241455 C287.3538406 677.29159352 296.57044226 672.58833929 305.71659851 667.72924805 C310.62271102 665.12423014 315.56381316 662.60304954 320.54263306 660.13995361 C332.06755797 655.20684139 332.06755797 655.20684139 342.16763306 648.32745361 C342.26567301 646.16430736 342.2913445 643.99788531 342.29068089 641.83251858 C342.29241165 640.79750312 342.29241165 640.79750312 342.29417738 639.74157825 C342.2968507 637.40034244 342.29231606 635.05917369 342.28788757 632.71794128 C342.28832313 631.03415952 342.28919775 629.35037781 342.29047674 627.66659647 C342.29272477 623.01700514 342.28869624 618.36743661 342.28369868 613.71784818 C342.27939875 608.71236569 342.28084027 603.70688458 342.28160095 598.70140076 C342.28212648 590.02152639 342.27897669 581.34165951 342.27336311 572.66178703 C342.26525199 560.11199393 342.26263329 547.56220447 342.26137512 535.01240904 C342.25918399 514.65347327 342.25252225 494.2945415 342.24307251 473.93560791 C342.23389997 454.15338155 342.22681836 434.37115628 342.2225647 414.58892822 C342.22230197 413.37049675 342.22203925 412.15206528 342.22176857 410.89671164 C342.22046357 404.78448121 342.21919985 398.67225077 342.21795666 392.56002033 C342.20758215 341.81582866 342.18996218 291.07164133 342.16763306 240.32745361 C339.46827716 240.32745361 337.86429763 241.34202883 335.44033813 242.53961182 Z " fill="#EFC751" transform="translate(551.8323669433594,70.67254638671875)"/>
<path d="M0 0 C1.67542976 0.28604898 3.34385343 0.61781233 5 1 C4.01 1.66 3.02 2.32 2 3 C1.54627027 6.00341989 1.54627027 6.00341989 1.63085651 9.61798286 C1.62739498 10.30914702 1.62393345 11.00031117 1.62036702 11.71241969 C1.61236274 14.05174805 1.6259368 16.39046936 1.63923645 18.72976685 C1.63792945 20.41441299 1.63530498 22.09905854 1.63146895 23.78370082 C1.6247313 28.43110155 1.63680148 33.07829656 1.65180314 37.72567105 C1.66471221 42.73045443 1.66037769 47.73522542 1.65809631 52.74002075 C1.65652032 61.4171742 1.66596351 70.09426017 1.68280983 78.77139664 C1.7071512 91.3171972 1.71500011 103.86296502 1.7187738 116.40878664 C1.72534594 136.76163799 1.74532774 157.11445336 1.77368164 177.46728516 C1.80120251 197.24267394 1.82244574 217.01805297 1.83520508 236.79345703 C1.83599325 238.01162578 1.83678142 239.22979453 1.83759347 240.48487748 C1.84150848 246.59583722 1.84529963 252.70679703 1.84902918 258.81775689 C1.88014882 309.54519614 1.93300532 360.27259632 2 411 C1.01 410.67 0.02 410.34 -1 410 C-1.02286401 357.9128401 -1.04049702 305.82568071 -1.05106533 253.73851678 C-1.05231611 247.59610428 -1.05361043 241.45369179 -1.05493164 235.3112793 C-1.05519395 234.08838017 -1.05545626 232.86548103 -1.05572652 231.60552435 C-1.06008374 211.77659501 -1.06797157 191.94766855 -1.0771528 172.11874092 C-1.0864879 151.78868318 -1.0920553 131.45862696 -1.09408849 111.12856716 C-1.09546402 98.5730016 -1.09981621 86.0174442 -1.10791647 73.46188115 C-1.11318215 64.86460544 -1.1148047 56.26733398 -1.11350138 47.67005677 C-1.11285772 42.70194857 -1.11387863 37.73385467 -1.11920547 32.76574898 C-1.12403846 28.22536803 -1.12433932 23.68501112 -1.12089889 19.14462911 C-1.1204731 17.49455445 -1.12176968 15.84447835 -1.12488318 14.19440658 C-1.12884559 11.96642501 -1.12676439 9.73853235 -1.12304783 7.51055241 C-1.12342755 6.26848721 -1.12380727 5.02642201 -1.1241985 3.74671847 C-1 1 -1 1 0 0 Z " fill="#E3BB4A" transform="translate(128,309)"/>
<path d="M0 0 C0.33 0 0.66 0 1 0 C1.06851619 29.73333008 1.12156944 59.46665749 1.15319599 89.20004956 C1.15694787 92.71458395 1.16083086 96.22911819 1.16479492 99.74365234 C1.16558185 100.44329909 1.16636878 101.14294584 1.16717956 101.863794 C1.18021458 113.17536618 1.20385787 124.48689238 1.23145839 135.79843733 C1.25956569 147.41502086 1.27596311 159.03157766 1.28226548 170.6481936 C1.28617121 177.1689074 1.29532996 183.68951707 1.31719017 190.21019745 C1.33761577 196.35295979 1.34382148 202.49557553 1.33932304 208.63836861 C1.34014552 210.88769135 1.34607476 213.1370192 1.35761642 215.38631248 C1.46412153 237.22124937 1.46412153 237.22124937 -2 247 C-3.19126781 243.42619658 -2.7349445 241.49116698 -2.0625 237.8125 C-1.86785156 236.72582031 -1.67320312 235.63914062 -1.47265625 234.51953125 C-1.23869141 233.27236328 -1.23869141 233.27236328 -1 232 C-1.33 232 -1.66 232 -2 232 C-2 213.19 -2 194.38 -2 175 C-1.34 175 -0.68 175 0 175 C-0.33 169.39 -0.66 163.78 -1 158 C-1.33 158 -1.66 158 -2 158 C-2 125.99 -2 93.98 -2 61 C-1.67 61 -1.34 61 -1 61 C-0.67 40.87 -0.34 20.74 0 0 Z " fill="#E8C14D" transform="translate(945,496)"/>
<path d="M0 0 C0.33 0 0.66 0 1 0 C1 72.27 1 144.54 1 219 C0.67 219 0.34 219 0 219 C-0.33 194.58 -0.66 170.16 -1 145 C-1.33 145 -1.66 145 -2 145 C-2 129.49 -2 113.98 -2 98 C-1.67 98 -1.34 98 -1 98 C-0.67 65.66 -0.34 33.32 0 0 Z " fill="#E7C04D" transform="translate(945,270)"/>
<path d="M0 0 C3.78239671 0.65690619 7.21841526 1.720131 10.8125 3.0625 C11.78832031 3.42472656 12.76414062 3.78695313 13.76953125 4.16015625 C14.50558594 4.43730469 15.24164062 4.71445312 16 5 C16 5.66 16 6.32 16 7 C16.94875 7.28875 17.8975 7.5775 18.875 7.875 C22 9 22 9 24 11 C20.47944083 10.40915596 17.56638778 9.4844458 14.35546875 7.93359375 C13.51435547 7.53076172 12.67324219 7.12792969 11.80664062 6.71289062 C10.94232422 6.29201172 10.07800781 5.87113281 9.1875 5.4375 C8.30384766 5.01275391 7.42019531 4.58800781 6.50976562 4.15039062 C4.33735663 3.10528576 2.16760043 2.05503238 0 1 C0 0.67 0 0.34 0 0 Z " fill="#E9C04B" transform="translate(553,306)"/>
<path d="M0 0 C4.07712664 0.68715618 7.7620656 1.90974902 11.625 3.375 C12.75164062 3.79523438 13.87828125 4.21546875 15.0390625 4.6484375 C17.69951189 5.86283788 19.16730063 6.77736459 21 9 C20.01 9.495 20.01 9.495 19 10 C17.02880859 9.28735352 17.02880859 9.28735352 14.6484375 8.12890625 C13.79765625 7.71962891 12.946875 7.31035156 12.0703125 6.88867188 C11.18085938 6.45103516 10.29140625 6.01339844 9.375 5.5625 C8.4778125 5.12873047 7.580625 4.69496094 6.65625 4.24804688 C4.43397755 3.17237245 2.21554281 2.08945069 0 1 C0 0.67 0 0.34 0 0 Z " fill="#E8C04B" transform="translate(273,377)"/>
<path d="M0 0 C4.16009317 1.35343361 8.25010742 2.81355477 12.3125 4.4375 C13.36050781 4.84871094 14.40851563 5.25992188 15.48828125 5.68359375 C18 7 18 7 19 10 C14.37324343 8.6077541 10.35313769 6.70479016 6.125 4.375 C4.97257812 3.74335937 3.82015625 3.11171875 2.6328125 2.4609375 C1.32957031 1.73777344 1.32957031 1.73777344 0 1 C0 0.67 0 0.34 0 0 Z " fill="#E7BF4A" transform="translate(406,920)"/>
<path d="M0 0 C4.16009317 1.35343361 8.25010742 2.81355477 12.3125 4.4375 C13.36050781 4.84871094 14.40851563 5.25992188 15.48828125 5.68359375 C18 7 18 7 19 10 C14.37324343 8.6077541 10.35313769 6.70479016 6.125 4.375 C4.97257812 3.74335937 3.82015625 3.11171875 2.6328125 2.4609375 C1.32957031 1.73777344 1.32957031 1.73777344 0 1 C0 0.67 0 0.34 0 0 Z " fill="#E8BF4B" transform="translate(302,866)"/>
<path d="M0 0 C3.94727588 -0.17942163 6.5980513 -0.09350689 10 2 C10 2.66 10 3.32 10 4 C11.36125 4.4021875 11.36125 4.4021875 12.75 4.8125 C15.71471963 5.89576294 17.6169754 6.98359457 20 9 C15.28629244 8.35014905 11.42313556 6.48438608 7.1875 4.4375 C6.49462891 4.10814453 5.80175781 3.77878906 5.08789062 3.43945312 C3.38955052 2.63127749 1.69444231 1.81631623 0 1 C0 0.67 0 0.34 0 0 Z " fill="#E9BF4A" transform="translate(494,279)"/>
<path d="M0 0 C-2.43218059 1.19963643 -4.86970578 2.38484438 -7.3125 3.5625 C-8.00279297 3.90474609 -8.69308594 4.24699219 -9.40429688 4.59960938 C-14.66015625 7.11328125 -14.66015625 7.11328125 -18 6 C-16.68 5.67 -15.36 5.34 -14 5 C-14 4.34 -14 3.68 -14 3 C-12.23358317 2.3012307 -10.46167336 1.61633417 -8.6875 0.9375 C-7.20830078 0.36322266 -7.20830078 0.36322266 -5.69921875 -0.22265625 C-3 -1 -3 -1 0 0 Z " fill="#E9C04A" transform="translate(480,126)"/>
<path d="M0 0 C-2.11997834 1.19733988 -4.24513676 2.38298713 -6.375 3.5625 C-6.97828125 3.90474609 -7.5815625 4.24699219 -8.203125 4.59960938 C-9.76978241 5.46127095 -11.38290862 6.23718183 -13 7 C-13.66 6.67 -14.32 6.34 -15 6 C-12.61827612 3.26455475 -10.29334709 2.07454642 -6.9375 0.75 C-6.05964844 0.39421875 -5.18179688 0.0384375 -4.27734375 -0.328125 C-2 -1 -2 -1 0 0 Z " fill="#E6BF4A" transform="translate(730,863)"/>
<path d="M0 0 C1.41805831 0.28482368 2.83440379 0.57818144 4.25 0.875 C5.03890625 1.03742187 5.8278125 1.19984375 6.640625 1.3671875 C9.01815034 2.00486814 10.91893735 2.68322142 13 4 C13.33 4.99 13.66 5.98 14 7 C9.0276578 5.50829734 4.58154261 3.39542583 0 1 C0 0.67 0 0.34 0 0 Z " fill="#E7BF4B" transform="translate(201,814)"/>
<path d="M0 0 C3.94949704 0.62816498 7.19892028 1.8645529 10.8125 3.5625 C12.27623047 4.24505859 12.27623047 4.24505859 13.76953125 4.94140625 C14.87361328 5.46541016 14.87361328 5.46541016 16 6 C12.22134307 7.25955231 10.96588214 6.48087189 7.3125 5.0625 C6.31863281 4.68222656 5.32476563 4.30195312 4.30078125 3.91015625 C3.54152344 3.60980469 2.78226563 3.30945313 2 3 C2 2.34 2 1.68 2 1 C1.34 0.67 0.68 0.34 0 0 Z " fill="#E8C04C" transform="translate(534,64)"/>
<path d="M0 0 C-1.78614318 1.03046722 -3.57910018 2.04913236 -5.375 3.0625 C-6.87160156 3.91521484 -6.87160156 3.91521484 -8.3984375 4.78515625 C-9.25695312 5.18605469 -10.11546875 5.58695313 -11 6 C-11.66 5.67 -12.32 5.34 -13 5 C-12.01 4.67 -11.02 4.34 -10 4 C-10 3.34 -10 2.68 -10 2 C-6.70021068 -0.19985954 -3.76967739 -1.88483869 0 0 Z " fill="#E6BE4A" transform="translate(703,877)"/>
<path d="M0 0 C5.23272633 1.63958758 10.15196636 3.38952035 15 6 C11.27905329 7.24031557 10.00544277 6.57190264 6.375 5.25 C4.90160156 4.73179687 4.90160156 4.73179687 3.3984375 4.203125 C1 3 1 3 0 0 Z " fill="#E9C14D" transform="translate(265,314)"/>
<path d="M0 0 C3.7910119 1.44950455 7.3874638 3.15172566 11 5 C11 5.33 11 5.66 11 6 C7.28400809 6.20086443 6.22791555 6.1519437 3 4 C3 3.34 3 2.68 3 2 C2.01 1.67 1.02 1.34 0 1 C0 0.67 0 0.34 0 0 Z " fill="#E9C14D" transform="translate(173,742)"/>
<path d="M0 0 C1.48206495 0.254496 2.96068615 0.52911762 4.4375 0.8125 C5.67306641 1.03873047 5.67306641 1.03873047 6.93359375 1.26953125 C7.95646484 1.63111328 7.95646484 1.63111328 9 2 C9.33 2.99 9.66 3.98 10 5 C6.08788267 3.84414715 3.1254959 2.64465038 0 0 Z " fill="#E9C04B" transform="translate(286,858)"/>
<path d="M0 0 C-5.2734375 3.22265625 -5.2734375 3.22265625 -7 4 C-7.66 3.67 -8.32 3.34 -9 3 C-5.83583464 -0.30799106 -4.50236011 -1.35070803 0 0 Z " fill="#E9C24C" transform="translate(834,810)"/>
<path d="M0 0 C4.12751449 0.60698743 7.3321148 2.03810791 11 4 C11 4.33 11 4.66 11 5 C8.69 4.67 6.38 4.34 4 4 C4 3.34 4 2.68 4 2 C2.68 1.34 1.36 0.68 0 0 Z " fill="#E7C04C" transform="translate(823,193)"/>
<path d="M0 0 C4.12751449 0.60698743 7.3321148 2.03810791 11 4 C11 4.33 11 4.66 11 5 C8.69 4.67 6.38 4.34 4 4 C4 3.34 4 2.68 4 2 C2.68 1.34 1.36 0.68 0 0 Z " fill="#E8C14B" transform="translate(650,116)"/>
<path d="M0 0 C4.95 0.99 4.95 0.99 10 2 C10.33 2.99 10.66 3.98 11 5 C9.53932801 4.54917531 8.08151968 4.08906463 6.625 3.625 C5.81289063 3.36976563 5.00078125 3.11453125 4.1640625 2.8515625 C2 2 2 2 0 0 Z " fill="#E9C14B" transform="translate(433,453)"/>
<path d="M0 0 C5.75 -0.125 5.75 -0.125 8 1 C8 1.66 8 2.32 8 3 C8.99 3.33 9.98 3.66 11 4 C10.01 4.495 10.01 4.495 9 5 C6.8359375 4.22265625 6.8359375 4.22265625 4.375 3.0625 C3.55773437 2.68222656 2.74046875 2.30195313 1.8984375 1.91015625 C1.27195312 1.60980469 0.64546875 1.30945313 0 1 C0 0.67 0 0.34 0 0 Z " fill="#E8C04C" transform="translate(622,338)"/>
<path d="M0 0 C4.95 0.99 4.95 0.99 10 2 C10.33 2.99 10.66 3.98 11 5 C9.53932801 4.54917531 8.08151968 4.08906463 6.625 3.625 C5.81289063 3.36976562 5.00078125 3.11453125 4.1640625 2.8515625 C2 2 2 2 0 0 Z " fill="#E9C04A" transform="translate(533,120)"/>
<path d="M0 0 C0.33 0 0.66 0 1 0 C1 2.31 1 4.62 1 7 C0.67 7 0.34 7 0 7 C0 4.69 0 2.38 0 0 Z " fill="#E8C451" transform="translate(76,313)"/>
<path d="M0 0 C1 4 1 4 1 4 Z " fill="#E6C24F" transform="translate(76,300)"/>
<path d="" fill="#EAC652" transform="translate(0,0)"/>
<path d="" fill="#E6C150" transform="translate(0,0)"/>
<path d="" fill="#E9C552" transform="translate(0,0)"/>
<path d="" fill="#EBC551" transform="translate(0,0)"/>
<path d="" fill="#EAC651" transform="translate(0,0)"/>
<path d="" fill="#EAC652" transform="translate(0,0)"/>
<path d="" fill="#E9C551" transform="translate(0,0)"/>
<path d="" fill="#E6C350" transform="translate(0,0)"/>
<path d="" fill="#E5C04F" transform="translate(0,0)"/>
<path d="M0 0 C3 1 3 1 3 1 Z " fill="#E6C14F" transform="translate(192,192)"/>
<path d="M0 0 C2 1 2 1 2 1 Z " fill="#EEC550" transform="translate(698,816)"/>
<path d="M0 0 C2 1 2 1 2 1 Z " fill="#ECC44F" transform="translate(745,792)"/>
<path d="M0 0 C2 1 2 1 2 1 Z " fill="#EBC351" transform="translate(761,784)"/>
<path d="M0 0 C2 1 2 1 2 1 Z " fill="#EBC450" transform="translate(793,768)"/>
<path d="M0 0 C2 1 2 1 2 1 Z " fill="#EBC351" transform="translate(840,744)"/>
<path d="M0 0 C2 1 2 1 2 1 Z " fill="#ECC552" transform="translate(872,728)"/>
<path d="M0 0 C2 1 2 1 2 1 Z " fill="#E9C350" transform="translate(134,720)"/>
<path d="" fill="#EAC652" transform="translate(0,0)"/>
<path d="" fill="#EAC651" transform="translate(0,0)"/>
<path d="" fill="#EBC550" transform="translate(0,0)"/>
<path d="" fill="#EAC552" transform="translate(0,0)"/>
<path d="" fill="#EFCA53" transform="translate(0,0)"/>
<path d="" fill="#EAC752" transform="translate(0,0)"/>
<path d="" fill="#EAC653" transform="translate(0,0)"/>
<path d="M0 0 C2 1 2 1 2 1 Z " fill="#E6BE4F" transform="translate(265,160)"/>
<path d="M0 0 C2 1 2 1 2 1 Z " fill="#EFC951" transform="translate(461,135)"/>
<path d="M0 0 C2 1 2 1 2 1 Z " fill="#E6C24F" transform="translate(392,104)"/>
<path d="M0 0 C2 1 2 1 2 1 Z " fill="#ECC753" transform="translate(465,72)"/>
<path d="" fill="#E4BD4D" transform="translate(0,0)"/>
<path d="" fill="#887027" transform="translate(0,0)"/>
<path d="" fill="#E1BE4C" transform="translate(0,0)"/>
<path d="" fill="#E3BC4F" transform="translate(0,0)"/>
<path d="" fill="#E8BF4C" transform="translate(0,0)"/>
<path d="" fill="#E6BE4C" transform="translate(0,0)"/>
<path d="" fill="#E4BC4B" transform="translate(0,0)"/>
<path d="" fill="#E6BF4C" transform="translate(0,0)"/>
<path d="" fill="#E5BE4C" transform="translate(0,0)"/>
<path d="" fill="#E3BC4B" transform="translate(0,0)"/>
<path d="" fill="#E5BF4D" transform="translate(0,0)"/>
<path d="" fill="#E5BC4C" transform="translate(0,0)"/>
<path d="" fill="#E3BD4B" transform="translate(0,0)"/>
<path d="" fill="#EEC953" transform="translate(0,0)"/>
<path d="" fill="#E4BC4B" transform="translate(0,0)"/>
<path d="" fill="#E3BC4D" transform="translate(0,0)"/>
<path d="" fill="#F2C951" transform="translate(0,0)"/>
<path d="" fill="#E4BE4C" transform="translate(0,0)"/>
<path d="" fill="#E0B94B" transform="translate(0,0)"/>
<path d="" fill="#F0C853" transform="translate(0,0)"/>
<path d="" fill="#F1C953" transform="translate(0,0)"/>
<path d="" fill="#E4BD4A" transform="translate(0,0)"/>
<path d="" fill="#DDB74B" transform="translate(0,0)"/>
<path d="" fill="#E4BE4B" transform="translate(0,0)"/>
<path d="" fill="#E4BF4D" transform="translate(0,0)"/>
<path d="" fill="#E3BF4D" transform="translate(0,0)"/>
<path d="" fill="#E7C34F" transform="translate(0,0)"/>
<path d="" fill="#E9C14E" transform="translate(0,0)"/>
<path d="" fill="#E7C14D" transform="translate(0,0)"/>
<path d="" fill="#ECC751" transform="translate(0,0)"/>
<path d="" fill="#E0BA4B" transform="translate(0,0)"/>
<path d="" fill="#E0BC4D" transform="translate(0,0)"/>
<path d="" fill="#E7C04D" transform="translate(0,0)"/>
<path d="" fill="#EBC451" transform="translate(0,0)"/>
<path d="" fill="#DBB649" transform="translate(0,0)"/>
<path d="" fill="#EAC350" transform="translate(0,0)"/>
<path d="" fill="#EAC451" transform="translate(0,0)"/>
<path d="" fill="#E6BF4E" transform="translate(0,0)"/>
<path d="" fill="#EBC54F" transform="translate(0,0)"/>
<path d="" fill="#EAC450" transform="translate(0,0)"/>
<path d="" fill="#DBB749" transform="translate(0,0)"/>
<path d="" fill="#DDB94C" transform="translate(0,0)"/>
<path d="" fill="#E6C450" transform="translate(0,0)"/>
<path d="" fill="#E0B847" transform="translate(0,0)"/>
<path d="" fill="#E0BA4C" transform="translate(0,0)"/>
<path d="" fill="#EBC14F" transform="translate(0,0)"/>
<path d="" fill="#EBC453" transform="translate(0,0)"/>
<path d="" fill="#E9C14F" transform="translate(0,0)"/>
<path d="" fill="#E7C352" transform="translate(0,0)"/>
<path d="" fill="#ECC953" transform="translate(0,0)"/>
<path d="" fill="#EFC755" transform="translate(0,0)"/>
<path d="" fill="#E3C04F" transform="translate(0,0)"/>
<path d="" fill="#EEC753" transform="translate(0,0)"/>
<path d="" fill="#E5C14E" transform="translate(0,0)"/>
<path d="" fill="#EBC651" transform="translate(0,0)"/>
<path d="" fill="#E5BF4F" transform="translate(0,0)"/>
<path d="" fill="#EAC553" transform="translate(0,0)"/>
<path d="" fill="#E8C34F" transform="translate(0,0)"/>
<path d="" fill="#EAC652" transform="translate(0,0)"/>
<path d="" fill="#E7C24F" transform="translate(0,0)"/>
<path d="" fill="#E5BF4E" transform="translate(0,0)"/>
<path d="" fill="#E9C550" transform="translate(0,0)"/>
<path d="" fill="#E7C351" transform="translate(0,0)"/>
<path d="" fill="#E8C353" transform="translate(0,0)"/>
<path d="" fill="#E8C451" transform="translate(0,0)"/>
<path d="" fill="#E7C451" transform="translate(0,0)"/>
<path d="" fill="#EAC450" transform="translate(0,0)"/>
<path d="" fill="#E7C550" transform="translate(0,0)"/>
<path d="" fill="#E9C452" transform="translate(0,0)"/>
<path d="" fill="#E8C450" transform="translate(0,0)"/>
<path d="" fill="#E8C451" transform="translate(0,0)"/>
<path d="" fill="#E8C451" transform="translate(0,0)"/>
<path d="" fill="#E7C24F" transform="translate(0,0)"/>
<path d="" fill="#E7C553" transform="translate(0,0)"/>
<path d="" fill="#E8C451" transform="translate(0,0)"/>
<path d="" fill="#E8C550" transform="translate(0,0)"/>
<path d="" fill="#E8C252" transform="translate(0,0)"/>
<path d="" fill="#E9C451" transform="translate(0,0)"/>
<path d="" fill="#E9C451" transform="translate(0,0)"/>
<path d="" fill="#EBC551" transform="translate(0,0)"/>
<path d="" fill="#E8C553" transform="translate(0,0)"/>
<path d="" fill="#E9C550" transform="translate(0,0)"/>
<path d="" fill="#E9C552" transform="translate(0,0)"/>
<path d="" fill="#E9C351" transform="translate(0,0)"/>
<path d="" fill="#EAC551" transform="translate(0,0)"/>
<path d="" fill="#E8C351" transform="translate(0,0)"/>
<path d="" fill="#E9C54F" transform="translate(0,0)"/>
<path d="" fill="#E8C451" transform="translate(0,0)"/>
<path d="" fill="#E9C551" transform="translate(0,0)"/>
<path d="" fill="#E8C351" transform="translate(0,0)"/>
<path d="" fill="#EAC652" transform="translate(0,0)"/>
<path d="" fill="#E8C451" transform="translate(0,0)"/>
<path d="" fill="#EAC450" transform="translate(0,0)"/>
<path d="" fill="#EAC552" transform="translate(0,0)"/>
<path d="" fill="#E9C452" transform="translate(0,0)"/>
<path d="" fill="#E9C54F" transform="translate(0,0)"/>
<path d="" fill="#E9C652" transform="translate(0,0)"/>
<path d="" fill="#EAC753" transform="translate(0,0)"/>
<path d="" fill="#DBB64A" transform="translate(0,0)"/>
<path d="" fill="#E7C252" transform="translate(0,0)"/>
<path d="" fill="#EAC653" transform="translate(0,0)"/>
<path d="" fill="#ECC653" transform="translate(0,0)"/>
<path d="" fill="#EAC551" transform="translate(0,0)"/>
<path d="" fill="#EAC654" transform="translate(0,0)"/>
<path d="" fill="#E8C552" transform="translate(0,0)"/>
<path d="" fill="#E8C551" transform="translate(0,0)"/>
<path d="" fill="#EBC551" transform="translate(0,0)"/>
<path d="" fill="#EAC750" transform="translate(0,0)"/>
<path d="" fill="#EBC952" transform="translate(0,0)"/>
<path d="" fill="#ECC752" transform="translate(0,0)"/>
<path d="" fill="#EBC754" transform="translate(0,0)"/>
<path d="" fill="#EFC853" transform="translate(0,0)"/>
<path d="" fill="#ECC852" transform="translate(0,0)"/>
<path d="" fill="#EBC753" transform="translate(0,0)"/>
<path d="" fill="#EAC652" transform="translate(0,0)"/>
<path d="" fill="#ECC852" transform="translate(0,0)"/>
<path d="" fill="#EFC954" transform="translate(0,0)"/>
<path d="" fill="#E7C34D" transform="translate(0,0)"/>
<path d="" fill="#EAC652" transform="translate(0,0)"/>
<path d="" fill="#EAC751" transform="translate(0,0)"/>
<path d="" fill="#ECC650" transform="translate(0,0)"/>
<path d="" fill="#E4BF4E" transform="translate(0,0)"/>
<path d="" fill="#ECC752" transform="translate(0,0)"/>
<path d="" fill="#F1CA51" transform="translate(0,0)"/>
<path d="" fill="#EAC653" transform="translate(0,0)"/>
<path d="" fill="#EDCA52" transform="translate(0,0)"/>
<path d="" fill="#EAC751" transform="translate(0,0)"/>
<path d="" fill="#F0CA52" transform="translate(0,0)"/>
<path d="" fill="#F1C854" transform="translate(0,0)"/>
<path d="" fill="#EEC754" transform="translate(0,0)"/>
<path d="" fill="#EFC954" transform="translate(0,0)"/>
<path d="" fill="#EBC752" transform="translate(0,0)"/>
<path d="" fill="#F1CB54" transform="translate(0,0)"/>
<path d="" fill="#EBC852" transform="translate(0,0)"/>
<path d="" fill="#ECC852" transform="translate(0,0)"/>
<path d="" fill="#EDC651" transform="translate(0,0)"/>
<path d="" fill="#E4C04D" transform="translate(0,0)"/>
<path d="" fill="#EDC952" transform="translate(0,0)"/>
<path d="" fill="#ECC854" transform="translate(0,0)"/>
<path d="" fill="#E6C04F" transform="translate(0,0)"/>
<path d="" fill="#F0C852" transform="translate(0,0)"/>
<path d="" fill="#ECC853" transform="translate(0,0)"/>
<path d="" fill="#EBC653" transform="translate(0,0)"/>
<path d="" fill="#EDC754" transform="translate(0,0)"/>
<path d="" fill="#EDC853" transform="translate(0,0)"/>
<path d="" fill="#EBC753" transform="translate(0,0)"/>
<path d="" fill="#EEC751" transform="translate(0,0)"/>
<path d="" fill="#EAC654" transform="translate(0,0)"/>
<path d="" fill="#EFC853" transform="translate(0,0)"/>
<path d="" fill="#EBC652" transform="translate(0,0)"/>
<path d="" fill="#EEC955" transform="translate(0,0)"/>
<path d="" fill="#EDC853" transform="translate(0,0)"/>
<path d="" fill="#F0CA54" transform="translate(0,0)"/>
<path d="" fill="#EDC951" transform="translate(0,0)"/>
<path d="" fill="#EEC852" transform="translate(0,0)"/>
<path d="" fill="#EDCA52" transform="translate(0,0)"/>
<path d="" fill="#E9C653" transform="translate(0,0)"/>
<path d="" fill="#EEC854" transform="translate(0,0)"/>
<path d="" fill="#EEC853" transform="translate(0,0)"/>
<path d="" fill="#EAC552" transform="translate(0,0)"/>
<path d="" fill="#EEC751" transform="translate(0,0)"/>
<path d="" fill="#EAC450" transform="translate(0,0)"/>
<path d="" fill="#EDC752" transform="translate(0,0)"/>
<path d="" fill="#EFC754" transform="translate(0,0)"/>
<path d="" fill="#E8C450" transform="translate(0,0)"/>
<path d="" fill="#EFCA53" transform="translate(0,0)"/>
<path d="" fill="#EAC551" transform="translate(0,0)"/>
<path d="" fill="#F0C853" transform="translate(0,0)"/>
<path d="" fill="#EFC852" transform="translate(0,0)"/>
<path d="" fill="#EFCA55" transform="translate(0,0)"/>
<path d="" fill="#F0CB54" transform="translate(0,0)"/>
<path d="" fill="#EFCA54" transform="translate(0,0)"/>
<path d="" fill="#E9C351" transform="translate(0,0)"/>
<path d="" fill="#E8C450" transform="translate(0,0)"/>
<path d="" fill="#F1C951" transform="translate(0,0)"/>
<path d="" fill="#F0C953" transform="translate(0,0)"/>
<path d="" fill="#EDC655" transform="translate(0,0)"/>
<path d="" fill="#E2BF50" transform="translate(0,0)"/>
<path d="" fill="#EDCA54" transform="translate(0,0)"/>
<path d="" fill="#F0C953" transform="translate(0,0)"/>
<path d="" fill="#EEC753" transform="translate(0,0)"/>
<path d="" fill="#EDC451" transform="translate(0,0)"/>
<path d="" fill="#EEC952" transform="translate(0,0)"/>
<path d="" fill="#EFC852" transform="translate(0,0)"/>
<path d="" fill="#EEC854" transform="translate(0,0)"/>
<path d="" fill="#EEC850" transform="translate(0,0)"/>
<path d="" fill="#EDC551" transform="translate(0,0)"/>
<path d="" fill="#EFCA52" transform="translate(0,0)"/>
<path d="" fill="#EDC851" transform="translate(0,0)"/>
<path d="" fill="#E2BD4E" transform="translate(0,0)"/>
<path d="" fill="#EEC94F" transform="translate(0,0)"/>
<path d="" fill="#E5BE4E" transform="translate(0,0)"/>
<path d="" fill="#EEC854" transform="translate(0,0)"/>
<path d="" fill="#EEC853" transform="translate(0,0)"/>
<path d="" fill="#EFC751" transform="translate(0,0)"/>
<path d="" fill="#EEC753" transform="translate(0,0)"/>
<path d="" fill="#E7C04E" transform="translate(0,0)"/>
<path d="" fill="#EDC652" transform="translate(0,0)"/>
<path d="" fill="#F1CA52" transform="translate(0,0)"/>
<path d="" fill="#E6C04E" transform="translate(0,0)"/>
<path d="" fill="#EAC250" transform="translate(0,0)"/>
<path d="" fill="#EECB54" transform="translate(0,0)"/>
<path d="" fill="#E6C14D" transform="translate(0,0)"/>
<path d="" fill="#F0C750" transform="translate(0,0)"/>
<path d="" fill="#F0CC53" transform="translate(0,0)"/>
<path d="" fill="#E5BF4E" transform="translate(0,0)"/>
<path d="" fill="#EEC853" transform="translate(0,0)"/>
<path d="" fill="#EFC752" transform="translate(0,0)"/>
<path d="" fill="#EEC752" transform="translate(0,0)"/>
<path d="" fill="#E5C04E" transform="translate(0,0)"/>
<path d="" fill="#E6BF4C" transform="translate(0,0)"/>
<path d="" fill="#F0CA53" transform="translate(0,0)"/>
<path d="" fill="#E4BF4B" transform="translate(0,0)"/>
<path d="" fill="#EEC953" transform="translate(0,0)"/>
<path d="" fill="#E6C04D" transform="translate(0,0)"/>
<path d="" fill="#E8C351" transform="translate(0,0)"/>
</svg>
